<svg width="72" height="84" viewBox="0 0 72 84" fill="none" xmlns="http://www.w3.org/2000/svg">
<path d="M0 32.505C0 54.1136 19.1163 84 36.0001 84C51.8945 84 72 54.1136 72 32.505C72 10.8964 55.8823 0 35.9999 0C16.1176 0 0 10.8964 0 32.505ZM45.3535 48.4835C49.7491 44.4379 55.8818 42.9665 61.5419 44.0676C62.7381 49.277 61.1396 54.9213 56.744 58.9669C52.3483 63.0125 46.2157 64.4839 40.5556 63.3828C39.3592 58.1733 40.9579 52.529 45.3535 48.4835ZM10.4579 44.0675C16.118 42.9665 22.2507 44.4378 26.6463 48.4834C31.0419 52.529 32.6406 58.1733 31.4443 63.3827C25.7842 64.4836 19.6515 63.0124 15.2559 58.9668C10.8603 54.921 9.26174 49.2768 10.4579 44.0675Z" fill="#1C1C21"/>
</svg>
